<svg version="1.1" xmlns="http://www.w3.org/2000/svg" viewBox="0 0 749.891357421875 551.2803649902344" width="749.891357421875" height="551.2803649902344">
  <!-- svg-source:excalidraw -->
  
  <defs>
    <style class="style-fonts">
      @font-face {
        font-family: "Virgil";
        src: url("https://excalidraw.com/Virgil.woff2");
      }
      @font-face {
        font-family: "Cascadia";
        src: url("https://excalidraw.com/Cascadia.woff2");
      }
    </style>
  </defs>
  <rect x="0" y="0" width="749.891357421875" height="551.2803649902344" fill="#ffffff"></rect><g stroke-linecap="round" transform="translate(10 10) rotate(0 364.9456787109375 265.6401824951172)"><path d="M0.6 0.79 C173.48 1.27, 346.05 1.24, 730.24 0.2 M0.12 -0.25 C197.7 -1.89, 396.03 -1.88, 730.19 -0.33 M729.21 -0.26 C731.96 110.45, 731.44 220.25, 730.03 531.68 M730.23 0.4 C728.57 115.71, 727.98 230.89, 729.95 530.89 M729.71 531.58 C562.15 532.05, 395.04 530.9, 0.8 530.53 M729.64 531.18 C570.62 528.67, 411.05 528.57, 0.01 531.34 M-0.19 530.6 C0.83 338.97, 0.8 148.71, -0.56 -0.05 M0.24 531.07 C-1.77 364.29, -1.43 197.25, -0.2 -0.35" stroke="#000000" stroke-width="1" fill="none"></path></g><g stroke-linecap="round" transform="translate(22.5809326171875 151.7613525390625) rotate(0 345.35772705078125 29.87847900390625)"><path d="M0 0 C211.19 0, 422.37 0, 690.72 0 M0 0 C224.61 0, 449.21 0, 690.72 0 M690.72 0 C690.72 14.45, 690.72 28.9, 690.72 59.76 M690.72 0 C690.72 14.05, 690.72 28.11, 690.72 59.76 M690.72 59.76 C500.02 59.76, 309.33 59.76, 0 59.76 M690.72 59.76 C485.95 59.76, 281.18 59.76, 0 59.76 M0 59.76 C0 40.49, 0 21.23, 0 0 M0 59.76 C0 36.52, 0 13.28, 0 0" stroke="#000000" stroke-width="1" fill="none"></path></g><g transform="translate(284.3698572559508 32.61603968067914) rotate(0 59.0361328125 20.700000000000003)"><text x="59.0361328125" y="0" font-family="Helvetica, Segoe UI Emoji" font-size="36px" fill="#000000" text-anchor="middle" style="white-space: pre;" direction="ltr" dominant-baseline="text-before-edge">Header</text></g><g stroke-linecap="round" transform="translate(22.8973388671875 222.61337280273438) rotate(0 210.58456420898438 114.62104797363281)"><path d="M0 0 C127.44 0, 254.89 0, 421.17 0 M0 0 C154.34 0, 308.69 0, 421.17 0 M421.17 0 C421.17 52.32, 421.17 104.63, 421.17 229.24 M421.17 0 C421.17 47.06, 421.17 94.13, 421.17 229.24 M421.17 229.24 C293.1 229.24, 165.03 229.24, 0 229.24 M421.17 229.24 C323.09 229.24, 225.01 229.24, 0 229.24 M0 229.24 C0 170.5, 0 111.75, 0 0 M0 229.24 C0 182.9, 0 136.56, 0 0" stroke="#000000" stroke-width="1" fill="none"></path></g><g transform="translate(160.4619140625 302.138432416524) rotate(0 55.0107421875 20.7)"><text x="0" y="0" font-family="Helvetica, Segoe UI Emoji" font-size="36px" fill="#000000" text-anchor="start" style="white-space: pre;" direction="ltr" dominant-baseline="text-before-edge">Article </text></g><g stroke-linecap="round" transform="translate(466.23968505859375 223.88232421875) rotate(0 123.27413940429688 113.34547424316405)"><path d="M0 0 C74.05 0, 148.09 0, 246.55 0 M0 0 C51.01 0, 102.02 0, 246.55 0 M246.55 0 C246.55 61.31, 246.55 122.61, 246.55 226.69 M246.55 0 C246.55 60.58, 246.55 121.17, 246.55 226.69 M246.55 226.69 C170.39 226.69, 94.24 226.69, 0 226.69 M246.55 226.69 C158.32 226.69, 70.09 226.69, 0 226.69 M0 226.69 C0 165.1, 0 103.5, 0 0 M0 226.69 C0 143.77, 0 60.85, 0 0" stroke="#000000" stroke-width="1" fill="none"></path></g><g stroke-linecap="round" transform="translate(21.336669921875 461.286376953125) rotate(0 345.8072814941406 32.02850341796875)"><path d="M0 0 C182.38 0, 364.77 0, 691.61 0 M0 0 C223.99 0, 447.98 0, 691.61 0 M691.61 0 C691.61 23.19, 691.61 46.39, 691.61 64.06 M691.61 0 C691.61 16.79, 691.61 33.58, 691.61 64.06 M691.61 64.06 C429.45 64.06, 167.29 64.06, 0 64.06 M691.61 64.06 C432.5 64.06, 173.38 64.06, 0 64.06 M0 64.06 C0 46.08, 0 28.11, 0 0 M0 64.06 C0 40.57, 0 17.08, 0 0" stroke="#000000" stroke-width="1" fill="none"></path></g><g stroke-linecap="round" transform="translate(22.522476196289062 89.70320892333984) rotate(0 346.1588134765625 26.74622344970703)"><path d="M0 0 C155.07 0, 310.13 0, 692.32 0 M0 0 C159.58 0, 319.16 0, 692.32 0 M692.32 0 C692.32 11.85, 692.32 23.7, 692.32 53.49 M692.32 0 C692.32 14.58, 692.32 29.17, 692.32 53.49 M692.32 53.49 C437.97 53.49, 183.63 53.49, 0 53.49 M692.32 53.49 C498.42 53.49, 304.52 53.49, 0 53.49 M0 53.49 C0 32.34, 0 11.18, 0 0 M0 53.49 C0 34.21, 0 14.92, 0 0" stroke="#000000" stroke-width="1" fill="none"></path></g><g transform="translate(306.76837158203125 95.61668090820314) rotate(0 32.009765625 20.700000000000003)"><text x="32.009765625" y="0" font-family="Helvetica, Segoe UI Emoji" font-size="36px" fill="#000000" text-anchor="middle" style="white-space: pre;" direction="ltr" dominant-baseline="text-before-edge">Nav</text></g><g transform="translate(281.37445068359375 154.21415405273436) rotate(0 60.0380859375 20.700000000000003)"><text x="60.0380859375" y="0" font-family="Helvetica, Segoe UI Emoji" font-size="36px" fill="#000000" text-anchor="middle" style="white-space: pre;" direction="ltr" dominant-baseline="text-before-edge">Section</text></g><g transform="translate(532.0862503051758 302.5481384277344) rotate(0.35568171492688677 45.0263671875 20.7)"><text x="0" y="0" font-family="Helvetica, Segoe UI Emoji" font-size="36px" fill="#000000" text-anchor="start" style="white-space: pre;" direction="ltr" dominant-baseline="text-before-edge">Aside</text></g><g transform="translate(308.28387451171875 471.5626430018036) rotate(0 52.0224609375 20.700000000000003)"><text x="52.0224609375" y="0" font-family="Helvetica, Segoe UI Emoji" font-size="36px" fill="#000000" text-anchor="middle" style="white-space: pre;" direction="ltr" dominant-baseline="text-before-edge">Footer</text></g><g stroke-linecap="round" transform="translate(22.60003662109375 21.665557861328125) rotate(0 345.8072814941406 32.02850341796875)"><path d="M0 0 C190.43 0, 380.87 0, 691.61 0 M0 0 C180.31 0, 360.63 0, 691.61 0 M691.61 0 C691.61 22.04, 691.61 44.08, 691.61 64.06 M691.61 0 C691.61 19.68, 691.61 39.36, 691.61 64.06 M691.61 64.06 C417.57 64.06, 143.52 64.06, 0 64.06 M691.61 64.06 C442.51 64.06, 193.41 64.06, 0 64.06 M0 64.06 C0 46.11, 0 28.17, 0 0 M0 64.06 C0 49.56, 0 35.06, 0 0" stroke="#000000" stroke-width="1" fill="none"></path></g></svg>